<svg version="1.1" xmlns="http://www.w3.org/2000/svg" xmlns:xlink="http://www.w3.org/1999/xlink" x="0px" y="0px"
     viewBox="0 0 300 300" style="enable-background:new 0 0 300 300;" xml:space="preserve">
<g>
	<path fill="#ffffff" d="M7.86,263.98l112.69-113.99L7.86,36.02C-2.39,26.63-2.61,17.03,7.22,7.2c9.81-9.81,19.41-9.6,28.81,0.64
		l113.98,112.69L263.98,7.84C273.37-2.4,282.97-2.61,292.8,7.2c9.81,9.82,9.6,19.43-0.64,28.81L179.46,149.99l112.69,113.99
		c10.24,9.4,10.45,19.01,0.64,28.81c-9.82,9.81-19.43,9.6-28.81-0.64L150.01,179.45L36.03,292.16c-9.4,10.24-19.01,10.45-28.81,0.64
		C-2.61,282.99-2.39,273.38,7.86,263.98z"/>
</g>
</svg>